# xmcd
#
# Track frame offsets:
#   150
#   19115
#   45090
#   63575
#   83060
#   103025
#   117570
#   131665
#   152185
#   168485
#   185550
#   203820
#   217530
#   237940
#
# Disc length: 3429 seconds
#
# Revision: 0
# Processed by: cddbd v1.5.2PL0 Copyright (c) Steve Scherf et al.
# Submitted via: uFREEDB ActiveX Control 1.5
#
DISCID=b80d630e
DTITLE=John Paul Young - O Amor Está no Ar
DYEAR=1900
DGENRE=Varios
TTITLE0=LOVE IS IN THE AIR
TTITLE1=ALL KOLL ELE
TTITLE2=EXAGERADO
TTITLE3=A MULHER EM MIM
TTITLE4=BEIJA, ME BEIJA, ME BEIJA
TTITLE5=VAI E VEM
TTITLE6=NÃO IDENTIFICADO
TTITLE7=AMOR, MEU GRANDE AMOR
TTITLE8=ABRE CORAÇÃO
TTITLE9=TODO AMOR QUE HOUVER NESSA VIDA
TTITLE10=FIM DE CASO-CASTIGO
TTITLE11=INTIMIDADE
TTITLE12=SURURU
TTITLE13=SEMPRE JUNTO DE VOÇÊ
EXTD=
EXTT0=
EXTT1=
EXTT2=
EXTT3=
EXTT4=
EXTT5=
EXTT6=
EXTT7=
EXTT8=
EXTT9=
EXTT10=
EXTT11=
EXTT12=
EXTT13=
PLAYORDER=
